HIERARCHY
ROOT Hips
{
	OFFSET -0.179506 -22.333345 2.821913
	CHANNELS 6 Xposition Yposition Zposition Zrotation Yrotation Xrotation 
	JOINT LeftUpLeg
	{
		OFFSET 6.951974 -9.140623 -0.681533
		CHANNELS 3 Zrotation Yrotation Xrotation
		JOINT LeftLeg
		{
			OFFSET 3.427654 -37.519855 -0.449580
			CHANNELS 3 Zrotation Yrotation Xrotation
			JOINT LeftFoot
			{
				OFFSET -1.359570 -39.796059 -4.369333
				CHANNELS 3 Zrotation Yrotation Xrotation
				JOINT LeftToe
				{
					OFFSET 2.635814 -5.579078 11.928840
					CHANNELS 3 Zrotation Yrotation Xrotation
					End Site
					{
						OFFSET 0.000000 0.000000 0.000000
					}
				}
			}
		}
	}
	JOINT RightUpLeg
	{
		OFFSET -6.767048 -9.052170 -0.431982
		CHANNELS 3 Zrotation Yrotation Xrotation
		JOINT RightLeg
		{
			OFFSET -3.829005 -38.256897 -0.885003
			CHANNELS 3 Zrotation Yrotation Xrotation
			JOINT RightFoot
			{
				OFFSET 1.577377 -39.841461 -4.231180
				CHANNELS 3 Zrotation Yrotation Xrotation
				JOINT RightToe
				{
					OFFSET -2.537174 -4.814398 12.334795
					CHANNELS 3 Zrotation Yrotation Xrotation
					End Site
					{
						OFFSET 0.000000 0.000000 0.000000
					}
				}
			}
		}
	}
	JOINT Spine
	{
		OFFSET -0.253288 10.896323 -2.669631
		CHANNELS 3 Zrotation Yrotation Xrotation
		JOINT Spine1
		{
			OFFSET 0.548704 13.518043 0.109247
			CHANNELS 3 Zrotation Yrotation Xrotation
			JOINT Spine2
			{
				OFFSET 0.145701 5.292222 2.542457
				CHANNELS 3 Zrotation Yrotation Xrotation
				JOINT Neck
				{
					OFFSET -0.277840 21.387037 -4.285703
					CHANNELS 3 Zrotation Yrotation Xrotation
					JOINT Head
					{
						OFFSET 0.515184 6.496960 5.134897
						CHANNELS 3 Zrotation Yrotation Xrotation
						End Site
						{
							OFFSET 0.000000 0.000000 0.000000
						}
					}
				}
				JOINT LeftShoulder
				{
					OFFSET 7.884473 12.174932 -3.408961
					CHANNELS 3 Zrotation Yrotation Xrotation
					JOINT LeftArm
					{
						OFFSET 9.097692 3.046888 -0.886815
						CHANNELS 3 Zrotation Yrotation Xrotation
						JOINT LeftForeArm
						{
							OFFSET 25.961220 -1.277207 -2.745643
							CHANNELS 3 Zrotation Yrotation Xrotation
							JOINT LeftHand
							{
								OFFSET 24.923361 0.898606 -0.117091
								CHANNELS 3 Zrotation Yrotation Xrotation
								End Site
								{
									OFFSET 0.000000 0.000000 0.000000
								}
							}
						}
					}
				}
				JOINT RightShoulder
				{
					OFFSET -8.175920 11.883285 -3.861528
					CHANNELS 3 Zrotation Yrotation Xrotation
					JOINT RightArm
					{
						OFFSET -9.601238 3.255117 -0.914307
						CHANNELS 3 Zrotation Yrotation Xrotation
						JOINT RightForeArm
						{
							OFFSET -25.374195 -1.332924 -2.140099
							CHANNELS 3 Zrotation Yrotation Xrotation
							JOINT RightHand
							{
								OFFSET -25.529810 0.777228 -0.555919
								CHANNELS 3 Zrotation Yrotation Xrotation
								End Site
								{
									OFFSET 0.000000 0.000000 0.000000
								}
							}
						}
					}
				}
			}
		}
	}
}
MOTION
Frames: 8
Frame Time: 0.033333
-62.499920 105.552597 -131.615295 -167.502268 -66.068150 163.704436 3.798026 3.047018 -19.031883 -0.646724 4.610666 8.363132 -7.181210 17.347552 -0.979904 2.533088 0.671871 0.841017 -5.849222 -8.614880 19.320570 1.826443 12.545650 18.988687 13.039234 -4.953245 -2.292399 0.355266 -0.360912 0.838161 6.701437 6.652768 6.292509 -7.847518 4.251258 -2.114644 0.696877 3.781019 -0.387664 -5.410978 1.490135 2.451829 3.861293 7.945407 -3.920431 -8.036189 2.042727 -10.406007 -6.873997 -0.992941 -13.293203 25.724334 -36.172754 -41.615539 22.794322 -12.377905 -10.353930 -6.282998 9.254271 -3.322395 -9.597630 3.006010 -24.163133 3.377972 4.781009 -27.332498 -4.854385 6.501822 8.358390 
-65.561028 104.565506 -131.575516 -169.338196 -68.219538 165.233905 2.789921 1.747768 -19.243569 -1.904985 3.836660 12.647583 -5.850667 17.148059 -3.033073 2.953581 0.373465 0.570363 -6.919848 -7.460627 17.851100 2.595123 12.673300 24.831728 13.811442 -6.508725 0.802349 0.399961 -0.136151 0.784672 6.702693 6.467841 5.502019 -8.189276 4.393873 -2.356122 0.212877 3.702968 -0.506552 -4.598651 -0.036956 3.923313 3.976577 8.337216 -3.486087 -7.367062 1.615607 -10.116964 -7.022387 -1.611346 -12.463411 20.815449 -34.057737 -39.009001 20.101429 -11.115893 -13.267658 -8.693555 9.579817 -4.312397 -13.287297 4.232333 -26.434875 3.552688 4.770037 -29.529447 -3.577415 6.821237 6.375178 
-68.429115 103.420967 -131.374603 -171.045722 -70.807575 165.796878 1.461009 -0.120347 -19.867306 -3.765447 2.985763 18.839247 -3.778656 16.296955 -5.485899 3.506631 0.263131 0.011465 -7.704286 -6.154756 16.421706 3.581537 12.922235 32.937310 14.012463 -8.013620 3.132646 1.125411 -0.355548 0.615206 6.633474 5.996907 4.445400 -8.430955 4.586107 -0.913593 -0.100598 3.167515 -0.971090 -4.134488 -0.719890 4.447027 3.418160 9.396002 -3.186493 -6.522581 1.324216 -10.669641 -6.388259 -1.650672 -11.064426 15.634383 -30.268253 -37.416683 19.334048 -11.151006 -14.797395 -13.670484 10.331671 -7.344610 -16.991374 6.112164 -28.035252 2.823935 5.786059 -31.116380 -4.700583 7.799622 6.798561 
-71.228142 102.087585 -131.225601 -173.371946 -73.146197 168.276450 0.015481 -0.657981 -21.191130 -6.139366 2.324801 24.556325 -1.444299 17.216939 -8.881212 4.520686 0.181217 -0.679652 -8.505679 -5.516506 12.964971 5.305103 12.442741 42.222897 13.512695 -11.493437 5.801699 1.184648 -0.256113 1.102842 5.461212 6.475297 2.776198 -7.699059 4.055253 -0.764003 0.358106 3.344259 -0.753433 -3.527371 0.120901 5.331065 3.041799 8.213829 -3.856583 1.324506 -0.831769 -12.688236 2.941034 -3.919423 -13.764618 9.487258 -24.431642 -35.931019 17.710733 -11.143241 -13.307657 -18.517956 11.017213 -9.124365 -19.506573 6.891956 -28.273684 1.798764 6.422247 -29.982759 -4.061765 8.268284 5.994983 
-73.973030 100.667007 -130.974533 -168.348237 -76.446026 162.933635 -0.860048 -0.500848 -22.211861 -8.345828 1.886013 32.291761 -0.269042 18.128825 -13.919219 5.388261 0.214623 -0.907511 -7.619609 -4.866736 8.899335 6.631368 10.059555 52.980877 12.489543 -13.754828 5.823577 1.438262 -0.197485 2.162723 3.329146 6.473494 1.560265 -5.205801 0.858948 -0.316678 2.933701 3.033506 -0.879891 -4.325262 2.544139 8.204184 2.162644 6.252407 -7.114330 15.732479 -4.652240 -16.456548 17.647542 -6.517277 -17.923387 2.023581 -17.897599 -37.384754 11.016038 -12.053691 -5.254632 -27.868293 13.060238 -15.725675 -21.791071 12.062797 -29.531006 -1.188898 9.121942 -28.104207 -3.524223 8.224832 9.275933 
-77.034752 99.582329 -130.696808 -164.084210 -79.188902 157.600207 -2.317385 -1.427826 -20.621446 -10.092753 0.517111 36.341220 1.344844 19.574613 -17.954980 5.742820 0.142319 -0.897555 -6.672963 -3.617410 4.450844 7.392198 7.959047 61.860851 11.449904 -15.137584 6.730360 0.973942 -0.267285 2.559793 2.693034 5.859173 2.228218 -4.610479 -0.074354 -0.399178 3.638037 2.899038 -0.941746 -3.799375 3.186562 8.443575 1.655906 7.363115 -9.048603 20.826572 -5.845819 -17.052144 18.725319 -7.246045 -16.859095 -0.926263 -15.353828 -35.597444 9.579227 -11.792392 -4.119692 -33.208523 13.251719 -19.292798 -23.915728 15.100717 -32.020576 -3.102799 11.397059 -26.890362 -4.936809 8.568770 9.193651 
-80.191856 99.007278 -130.386688 -158.733352 -82.435734 151.374449 -4.186960 -2.418284 -18.098075 -10.803010 -1.199734 37.739700 2.198038 20.207234 -20.441164 5.877566 0.135285 -0.711051 -5.815997 -2.962907 -0.044633 7.001958 6.127891 67.425481 10.108598 -16.359741 5.584688 0.655183 -0.321786 2.649705 2.895694 5.000716 2.790345 -4.573944 -0.002102 -0.481419 3.542498 2.848652 -1.073291 -3.405295 1.993035 7.879970 1.366657 7.509745 -9.479554 21.142256 -5.575932 -16.518245 16.138863 -8.303303 -16.142591 -1.954858 -13.593262 -35.085227 11.420028 -10.595698 -6.692137 -34.873686 13.141223 -20.585736 -25.880074 17.423735 -34.630700 -3.496049 11.018682 -27.564574 -7.664657 8.866197 8.724972 
-81.200356 98.978813 -131.198380 -145.379163 -86.689628 136.857241 -6.119695 -4.382498 -16.397099 -9.074037 -1.546156 39.239992 3.541195 17.974474 -20.728399 5.911881 -0.639191 -1.946998 -4.975018 -1.832535 -2.956979 7.279488 7.355459 69.455189 7.847298 -15.263708 0.308307 2.347626 -0.596609 0.716067 6.681619 2.604008 5.766278 -8.951575 3.330239 -0.589672 0.246783 1.452944 -0.582880 -0.609703 -4.303192 2.406742 0.803599 17.142083 -5.620090 -5.129305 0.058549 -8.081568 -26.014482 -2.476307 -6.993442 -1.947458 3.004232 -30.062426 19.529795 -2.361246 -16.665600 -29.381840 10.564393 -17.632926 -28.822404 18.117049 -39.847191 -3.825976 10.620464 -26.176960 -13.653382 8.010657 10.441796 
